<svg version="1.1" xmlns="http://www.w3.org/2000/svg" xmlns:xlink="http://www.w3.org/1999/xlink" x="0px" y="0px" width="165px"
	 height="191px" viewBox="0 0 165 191" enable-background="new 0 0 165 191" xml:space="preserve">
<g id="Layer_1">
	<path fill-rule="evenodd" clip-rule="evenodd" d="M117.889,156.555c-0.585-1.477-1.017-3.014-1.517-4.523
		c-0.358-1.08-0.784-2.1-1.613-2.947c-1.387-1.416-1.945-3.181-1.881-5.147c0.03-0.897,0.138-1.795,0.11-2.689
		c-0.01-0.344-0.209-0.798-0.475-0.99c-0.501-0.362-1.1-0.607-1.683-0.835c-1.829-0.71-2.759-2.34-3.803-3.803
		c-0.646-0.907-1.502-1.723-1.736-2.907c-0.133-0.671-0.439-1.306-0.593-1.974c-0.241-1.061-0.702-2.173-0.563-3.193
		c0.259-1.893,0.553-3.878,2.22-5.221c0.063-0.05,0.053-0.187,0.101-0.385c-0.396,0.127-0.691,0.23-0.991,0.315
		c-1.184,0.333-2.257,1.117-3.576,0.9c-0.974-0.158-1.345,0.519-1.479,1.23c-0.349,1.877-0.681,3.766-0.835,5.665
		c-0.114,1.405-0.03,2.844,0.128,4.25c0.209,1.86,0.502,3.718,0.902,5.545c0.245,1.122,0.848,2.163,1.136,3.279
		c0.672,2.602,2.149,4.727,3.769,6.793c0.928,1.184,1.818,2.398,2.676,3.635c0.139,0.199,0.021,0.577,0.021,0.872
		c-0.108,0.023-0.218,0.047-0.327,0.07c-1.092-1.437-1.727-3.282-3.534-4.047c-6.577,5.875-13.548,11.342-20.68,16.647
		c-0.251,0.165-0.521,0.271-0.728,0.452c-0.391,0.339-1.062,0.718-1.063,1.084c-0.012,1.92,0.105,3.846,0.278,5.761
		c0.045,0.5,0.043,0.817-0.455,0.91c-0.589,0.109-0.646-0.331-0.67-0.768c-0.067-1.188-0.205-2.377-0.191-3.563
		c0.014-1.152-0.425-2.051-1.311-2.688c-0.854-0.613-1.791-1.111-2.707-1.634c-1.499-0.854-3.044-1.63-4.502-2.548
		c-0.943-0.592-1.691-1.515-2.659-2.048c-1.945-1.073-3.633-2.483-5.295-3.9c-2.886-2.459-5.637-5.075-8.455-7.613
		c-1.935-1.742-3.904-3.447-5.83-5.199c-1.65-1.5-3.259-3.043-4.889-4.563c-1.883-1.758-3.848-3.438-5.628-5.293
		c-1.464-1.525-2.708-3.261-4.054-4.901c-0.934-1.137-1.877-2.267-2.81-3.405c-0.138-0.169-0.241-0.367-0.36-0.551
		c0.001-0.001,0.001-0.001,0.003-0.002c-0.016-0.016-0.027-0.032-0.034-0.053c-0.033-0.021-0.048-0.059-0.052-0.097
		c-0.016-0.015-0.03-0.03-0.039-0.054c-0.041-0.101-0.094-0.195-0.139-0.294c-0.015-0.032-0.027-0.064-0.041-0.098
		c-0.186-0.306-0.365-0.614-0.544-0.923c-2.015-2.589-3.993-5.212-5.855-7.912c-1.703-2.467-3.227-5.057-4.843-7.584
		c-0.65-1.017-1.468-1.947-1.981-3.024c-1.205-2.534-2.295-5.124-3.385-7.712c-0.425-1.008-0.773-2.058-1.072-3.111
		c-0.491-1.729-0.933-3.473-0.925-5.295c0.004-1.045-0.271-1.305-1.206-1.722c-1.672-0.745-3.306-1.578-5.029-2.409
		c0.969-1.101,1.746-0.409,2.456-0.066c1.115,0.54,2.169,1.205,3.258,1.801c0.618,0.339,1.482,0.081,2.068-0.652
		c0.317-0.396,0.542-0.867,0.813-1.301c0.136-0.218,0.234-0.493,0.428-0.635c1.667-1.224,2.427-3.159,3.719-4.663
		c0.81-0.943,1.251-2.066,1.943-3.058c0.605-0.868,0.999-1.885,1.468-2.845c1.807-3.693,3.392-7.468,3.795-11.611
		c0.271-2.785,0.544-5.606-0.162-8.354c-0.444-1.73-1.213-3.376-1.825-5.064c-1.188-3.282-3.512-5.86-5.478-8.638
		c-1.662-2.348-3.693-4.438-5.601-6.607c-0.493-0.56-1.323-0.882-1.67-1.498c-0.661-1.175-1.404-0.929-2.325-0.485
		c-1.38,0.666-2.781,1.287-4.176,1.919c-0.737,0.333-0.884,0.27-1.35-0.557c1.677-0.831,3.315-1.749,5.039-2.46
		c1.197-0.495,1.799-1.383,1.976-2.5c0.23-1.449,0.333-2.942-0.256-4.372c-0.096-0.232-0.125-0.506-0.123-0.761
		c0.021-2.204,0.116-4.409,0.07-6.611c-0.03-1.471-0.29-2.935-0.379-4.406c-0.094-1.556-1.093-2.408-2.272-3.162
		C7.291,8.909,5.988,8.041,4.668,7.199C4.201,6.901,4.105,6.576,4.615,5.974C5.69,6.719,6.764,7.484,7.86,8.218
		c1.047,0.702,2.088,1.423,3.19,2.031c0.446,0.246,1.043,0.268,1.577,0.293c1.333,0.063,2.669,0.058,4.004,0.103
		c3.418,0.115,6.836,0.249,10.254,0.362c1.017,0.034,2.035,0.001,3.051,0.037c1.592,0.055,3.182,0.16,4.773,0.214
		c2.786,0.095,5.573,0.209,8.36,0.238c3.51,0.036,7.021-0.004,10.531-0.015c2.614-0.008,5.228-0.011,7.842-0.035
		c3.544-0.033,7.088-0.103,10.632-0.117c1.07-0.003,1.985-0.367,2.573-1.189c0.777-1.086,1.857-1.78,2.9-2.52
		c0.375-0.388,0.777-0.761,1.237-1.044C78.885,6.397,79,6.22,79.158,6.126c-1.985-0.051-3.97-0.177-5.956-0.191
		c-2.495-0.019-4.992,0.08-7.488,0.123c-2.406,0.041-4.812,0.115-7.217,0.102c-2.236-0.012-4.471-0.14-6.708-0.175
		c-1.041-0.017-2.083,0.112-3.124,0.093c-1.288-0.023-2.574-0.164-3.862-0.198c-3.306-0.086-6.614-0.098-9.918-0.219
		c-4.025-0.148-8.046-0.398-12.071-0.562c-1.615-0.066-3.234-0.033-4.852-0.025c-1.269,0.006-2.538,0.035-3.807,0.066
		c-1.021,0.024-2.043,0.121-3.062,0.089C9.454,5.178,7.816,5.024,6.175,4.961c-0.514-0.02-1.045,0.066-1.544,0.2
		C4.418,5.218,4.198,5.489,4.105,5.714c-0.452,1.097-0.36,2.247-0.31,3.402c0.122,2.776,0.351,5.563,0.218,8.331
		c-0.061,1.272-0.153,2.476,0.216,3.697c0.065,0.216,0.05,0.46,0.049,0.69c-0.01,1.8-0.033,3.6-0.038,5.399
		c-0.006,2.002,0.012,4.004,0.002,6.006c-0.005,0.97,0.05,1.826,1.115,2.352c1.324,0.653,2.576,1.454,3.843,2.218
		c0.57,0.343,1.183,0.672,1.634,1.144c2.137,2.232,4.63,4.094,6.357,6.766c0.989,1.529,2.055,2.993,2.674,4.704
		c0.358,0.991,0.371,2.108,0.734,3.097c0.879,2.395,0.934,4.859,0.967,7.364c0.036,2.769-0.548,5.399-1.444,7.969
		c-0.435,1.247-1.046,2.445-1.687,3.604c-1.198,2.169-2.342,4.389-3.762,6.41c-1.233,1.754-2.729,3.352-4.483,4.643
		c-1.037,0.764-1.94,1.822-3.563,1.706c0.209,2.271,0.247,4.518,0.658,6.694c0.551,2.922,1.265,5.829,2.146,8.67
		c0.76,2.453,1.687,4.887,2.836,7.179c1.603,3.196,3.42,6.29,5.266,9.354c1.069,1.775,2.324,3.447,3.589,5.094
		c1.159,1.508,2.453,2.913,3.672,4.375c1.787,2.146,3.525,4.331,5.349,6.442c1.892,2.19,3.859,4.316,5.799,6.467
		c1.515,1.678,2.977,3.409,4.578,5.002c1.472,1.466,3.084,2.791,4.658,4.15c1.396,1.207,2.834,2.364,4.235,3.564
		c1.627,1.395,3.23,2.817,4.852,4.219c1.904,1.645,3.816,3.278,5.726,4.916c0.989,0.849,1.956,1.728,2.976,2.536
		c0.793,0.629,1.657,1.166,2.486,1.749c2.867,2.014,5.68,4.107,8.613,6.02c2.357,1.535,4.858,2.849,7.292,4.266
		c0.433,0.252,0.719,0.209,1.129-0.169c1.894-1.741,3.519-3.801,5.85-5.035c0.15-0.079,0.27-0.219,0.4-0.335
		c0.909-0.806,1.788-1.648,2.733-2.409c0.964-0.777,1.998-1.464,2.987-2.209c1.685-1.27,3.379-2.528,5.031-3.838
		c2.604-2.061,5.185-4.15,7.756-6.252c0.5-0.409,0.908-0.932,1.538-1.591c1.242,2.326,2.518,4.411,3.495,6.626
		c1.053,2.387,0.114,4.688-0.967,6.816c-0.746,1.471-1.665,2.867-1.611,4.566c0.067,2.191,1.64,3.575,2.969,5.087
		c0.009-0.359-0.089-0.672-0.215-0.972c-0.418-0.997-0.521-1.945-0.085-3.019c0.59-1.453,1.736-2.336,2.849-3.29
		c0.527-0.452,1.057-0.908,1.528-1.414c0.134-0.142,0.071-0.467,0.104-0.76c0.562,0.212,0.958-0.042,1.104-0.725
		c0.126-0.586,0.344-1.162,0.391-1.753c0.096-1.207,0.106-2.421,0.148-3.633C118.553,159.892,118.541,158.202,117.889,156.555z
		 M106.853,143.977c-1.557-2.119-2.681-4.386-3.525-6.835c-0.385-1.116-0.896-2.205-1.137-3.35c-0.487-2.299-0.658-4.631,0.09-6.922
		c0.146-0.446,0.442-0.841,0.669-1.259c0.067,0.025,0.133,0.05,0.2,0.075c-0.045,0.683-0.098,1.367-0.133,2.051
		c-0.104,2.06,0.562,3.996,0.938,5.982c0.544,2.87,1.97,5.291,3.708,7.556c0.874,1.137,1.892,2.163,2.791,3.282
		c0.949,1.182,2.061,2.25,2.629,3.714c0.149,0.385,0.498,0.691,0.714,1.075C111.173,147.953,108.687,146.472,106.853,143.977z
		 M117.947,161.915c-0.001-0.001-0.003-0.002-0.005-0.003c-0.124,0.339-0.248,0.678-0.404,1.003
		c-0.015,0.077-0.032,0.154-0.04,0.233c-0.004,0.035-0.021,0.063-0.042,0.083c0.008,0.079,0.016,0.159,0.023,0.239
		c-0.062,0.005-0.122,0.01-0.183,0.015v0.11c0,0.173-0.27,0.173-0.27,0v-0.134c0-0.036,0.013-0.063,0.031-0.083l-0.108-1.565
		c0.02,0,0.038-0.002,0.057-0.003c-0.021-0.498-0.187-0.981-0.354-1.447c-0.022-0.061,0-0.108,0.038-0.136
		c-0.103-0.453-0.134-0.934-0.187-1.392c-0.219-1.848-1.067-3.402-2.066-4.894c-0.78-1.166-1.642-2.277-2.531-3.501
		c1.215,0.281,1.938,1.17,2.629,2.028c1.474,1.831,2.427,3.969,3.126,6.18C117.979,159.65,118.398,160.774,117.947,161.915z"/>
	<path fill-rule="evenodd" clip-rule="evenodd" d="M130.637,51.213c-0.088,0.005-0.175,0.01-0.263,0.016
		c-0.075,0.464-0.204,0.926-0.221,1.393c-0.105,2.864-1.29,5.456-2.073,8.144c-0.516,1.769-1.232,3.481-1.915,5.196
		c-0.351,0.882-0.617,1.987-1.293,2.501c-0.892,0.678-0.991,1.621-1.462,2.428c-0.232,0.4-0.341,0.875-0.593,1.26
		c-0.492,0.751-1.046,1.463-1.574,2.191c-0.073-0.039-0.146-0.077-0.22-0.115c0-0.192-0.025-0.387,0.004-0.574
		c0.349-2.254,0.764-4.499,1.037-6.761c0.157-1.305,0.093-2.638,0.119-3.959c0.01-0.457-0.01-0.914-0.01-1.372
		c-0.001-2.657-0.155-5.217-1.273-7.768c-1.3-2.966-3.664-5.225-4.917-8.173c-1.885-1.581-2.887-4.078-5.336-5.08
		c-1.089-0.446-2.134-0.998-3.198-1.501c-0.103-0.048-0.22-0.146-0.311-0.127c-0.895,0.185-1.599-0.326-2.341-0.651
		c-0.528-0.232-0.983-0.632-1.51-0.869c-0.797-0.359-1.634-0.631-2.444-0.96c-0.312-0.126-0.602-0.306-0.996-0.511
		c-0.029,0.289-0.121,0.517-0.05,0.593c0.447,0.479,0.891,0.979,1.411,1.371c1.021,0.768,2.125,1.426,3.137,2.206
		c1.481,1.143,2.487,2.704,3.569,4.204c1.4,1.941,2.375,4.094,3.283,6.279c0.442,1.064,0.734,2.191,1.086,3.293
		c0.359,1.13,0.823,2.243,1.044,3.4c0.751,3.935-0.11,7.706-1.32,11.429c-0.105,0.323-0.13,0.671-0.192,1.008
		c-0.395-2.112-0.703-4.178-0.981-6.248c-0.071-0.539,0.029-1.106-0.082-1.632c-0.32-1.526-0.896-3.022-1.028-4.56
		c-0.238-2.763-1.65-4.973-3.025-7.207c-0.856-1.39-1.922-2.649-2.853-3.995c-1.629-2.354-3.481-4.533-5.884-6.077
		c-2.022-1.299-3.927-2.911-6.423-3.34c-0.424-0.073-0.877-0.138-1.248-0.335c-1.784-0.949-3.55-1.933-5.311-2.924
		c-1.007-0.567-1.992-1.174-2.988-1.76c-0.686-0.403-1.401-0.763-2.051-1.216c-0.7-0.486-1.335-1.063-2.005-1.593
		c-0.588-0.466-1.263-0.85-1.762-1.396c-1.344-1.471-2.544-3.076-3.936-4.496c-0.924-0.942-1.044-2.091-1.287-3.289
		c0.804,0.615,1.465,1.368,2.233,1.99c1.843,1.495,3.719,2.951,5.616,4.378c0.994,0.747,2.082,1.367,3.087,2.101
		c2.288,1.669,4.749,2.939,7.472,3.786c4.054,1.26,8.273,1.478,12.41,2.205c1.122,0.197,2.318,0.246,2.854,1.12
		c0.418-0.046,0.676-0.156,0.854-0.08c0.771,0.328,1.514,0.727,2.28,1.069c2.051,0.915,4.164,1.71,5.86,3.265
		c1.021,0.936,2.043,1.873,3.094,2.775c1.565,1.344,2.095,3.412,3.515,4.883c1.312,1.36,1.779,3.27,2.157,5.02
		c0.542,2.496,1.051,5.056,0.745,7.667c-0.049,0.417,0.125,0.858,0.196,1.288c0.308-0.477,0.532-0.927,0.597-1.399
		c0.248-1.766,0.454-3.538,0.652-5.31c0.099-0.889,0.224-1.785,0.203-2.675c-0.041-1.662-0.314-3.326-0.245-4.979
		c0.089-2.108,0.013-4.155-0.697-6.165c-0.628-1.781-1.527-3.364-3.05-4.52c-1.861-1.412-3.728-2.82-5.632-4.171
		c-1.028-0.73-2.152-1.326-3.22-2.002c-1.715-1.084-3.638-1.647-5.558-2.188c-1.396-0.393-2.824-0.689-4.253-0.938
		c-1.308-0.226-2.635-0.328-3.953-0.488c-0.66-0.08-1.318-0.241-1.979-0.242c-2.162-0.001-4.297-0.094-6.453-0.423
		c-3.133-0.478-6.076-1.437-8.991-2.609c-0.899-0.361-1.792-0.634-2.621-1.203c-0.935-0.642-2.043-1.034-3.082-1.523
		c-0.964-0.454-1.946-0.873-2.9-1.345c-0.537-0.266-1.035-0.609-1.743-1.034c0.604-0.407,1.035-0.78,1.531-1.015
		c1.102-0.518,2.226-0.994,3.36-1.435c1.116-0.435,2.229-0.951,3.394-1.169c1.734-0.326,3.523-0.351,5.269-0.631
		c2.966-0.477,5.935-0.424,8.913-0.245c0.637,0.038,1.286-0.005,1.909,0.107c2.303,0.412,4.657,0.591,6.829,1.595
		c1.773,0.819,3.896,0.518,5.525,2.014c0.955,0.876,2.369,1.346,3.655,1.744c2.084,0.645,3.563,2.149,5.137,3.457
		c1.477,1.229,2.646,2.829,3.937,4.279c0.741,0.834,1.452,1.696,2.293,2.682c0.124-0.373,0.217-0.502,0.184-0.575
		c-0.443-0.985-0.848-1.994-1.375-2.934c-0.546-0.974-1.202-1.888-1.833-2.813c-0.911-1.336-1.811-2.682-2.778-3.977
		c-0.623-0.833-1.345-1.594-2.046-2.367c-1.534-1.692-2.994-3.466-4.655-5.025c-1.429-1.342-3.072-2.46-4.658-3.628
		c-1.262-0.931-2.584-1.737-4.224-1.881c-1.2-0.105-2.392-0.326-3.581-0.524c-2.089-0.348-4.166-0.917-6.265-1.021
		c-2.013-0.099-4.055,0.229-6.072,0.467c-0.794,0.094-1.551,0.477-2.335,0.687c-0.563,0.15-1.135,0.35-1.704,0.429
		c-0.203,0.07-0.401,0.154-0.584,0.257c-0.037,0.021-0.073,0.046-0.11,0.069c-0.202,0.18-0.398,0.364-0.641,0.479
		c-0.014,0.013-0.032,0.023-0.047,0.035c-0.056,0.069-0.12,0.131-0.2,0.176c-0.955,0.853-1.918,1.697-2.858,2.566
		c-0.793,0.732-1.596,1.462-2.324,2.257c-0.876,0.956-1.789,1.909-2.49,2.991c-1.512,2.332-3.21,4.625-2.935,7.657
		c0.014,0.143-0.017,0.29-0.037,0.434c-0.012,0.083-0.045,0.164-0.096,0.339c-1.004-0.041-1.699,0.311-2.036,1.286
		c-0.105,0.305-0.375,0.619-0.654,0.788c-2.197,1.334-3.51,3.518-5.148,5.375c-1.155,1.31-1.504,3.068-1.9,4.729
		c-0.477,1.996-0.916,3.994-0.706,6.103c0.089,0.903-0.316,1.856-0.543,3.021c0.374-0.272,0.538-0.392,0.758-0.551v5.358
		c-0.095,0.015-0.189,0.03-0.284,0.045c-0.222-0.806-0.913-1.373-0.754-2.406c0.134-0.863-0.112-1.781-0.161-2.677
		c-0.076-1.375-0.168-2.75-0.18-4.127c-0.022-2.39,0.448-4.705,1.057-7.012c0.653-2.475,2.112-4.367,3.924-6.069
		c0.438-0.412,0.735-0.981,1.188-1.371c1.029-0.881,2.055-1.789,3.192-2.511c1.309-0.832,1.537-2.1,1.704-3.423
		c0.288-2.274,1.343-4.144,2.89-5.783c0.38-0.403,0.71-0.852,1.063-1.28c-0.043-0.077-0.088-0.153-0.131-0.229
		c-0.925,0-1.851-0.026-2.774,0.006c-1.564,0.054-3.127,0.21-4.69,0.207c-2.45-0.004-4.898-0.133-7.348-0.156
		c-3.763-0.035-7.527-0.018-11.291-0.035c-2.404-0.01-4.809-0.033-7.214-0.065c-1.764-0.024-3.529-0.06-5.292-0.113
		c-2.785-0.085-5.571-0.158-8.353-0.295c-2.021-0.1-4.035-0.322-6.055-0.442c-1.531-0.091-3.066-0.093-4.599-0.16
		c-1.267-0.055-1.779,0.481-1.751,1.74c0.052,2.307-0.004,4.616,0.079,6.921c0.098,2.722,0.303,5.438,0.443,8.159
		c0.058,1.125,0.049,2.252,0.108,3.376c0.016,0.288,0.105,0.638,0.291,0.837c0.455,0.487,1.038,0.855,1.476,1.353
		c1.525,1.735,3.055,3.469,4.497,5.273c1.171,1.466,2.297,2.983,3.304,4.566c1.672,2.627,3.436,5.219,4.356,8.249
		c0.451,1.485,1.08,2.939,1.329,4.457c0.255,1.556,0.218,3.174,0.173,4.762c-0.05,1.785-0.173,3.578-0.417,5.346
		c-0.141,1.02-0.53,2.02-0.904,2.991c-0.78,2.026-1.534,4.072-2.472,6.026c-0.794,1.657-1.778,3.232-2.778,4.779
		c-1.111,1.718-2.278,3.408-3.53,5.025c-0.86,1.11-1.857,2.13-2.889,3.087c-0.54,0.5-0.812,1.086-0.685,1.688
		c0.492,2.342,0.875,4.742,1.7,6.972c1.22,3.294,2.618,6.549,4.251,9.658c1.429,2.721,3.289,5.215,4.955,7.812
		c1.205,1.878,2.373,3.78,3.618,5.632c1.224,1.819,2.527,3.584,3.79,5.377c0.342,0.485,0.667,0.983,0.998,1.476
		c0.031,0.014,0.055,0.041,0.063,0.087c0.005,0.026,0.014,0.051,0.021,0.074c0.087,0.138,0.169,0.276,0.245,0.42
		c0.007,0.012,0.016,0.021,0.022,0.031c0.623,0.723,1.208,1.475,1.747,2.263c0.019,0.027,0.022,0.053,0.021,0.078
		c0.159,0.16,0.319,0.32,0.477,0.48c0.364,0.369,0.685,0.78,1.048,1.15c1.624,1.652,3.256,3.298,4.884,4.945
		c0.55,0.558,1.097,1.119,1.645,1.679c1.378,1.406,2.754,2.815,4.133,4.221c0.792,0.809,1.523,1.688,2.392,2.403
		c1.914,1.575,3.916,3.045,5.839,4.607c0.463,0.377,0.719,0.996,1.147,1.428c1.016,1.025,2.061,2.021,3.125,2.996
		c1.172,1.076,2.368,2.129,3.575,3.167c1.061,0.911,2.083,1.891,3.243,2.656c2.343,1.547,4.769,2.97,7.161,4.443
		c0.54,0.332,1.064,0.695,1.624,0.989c1.3,0.681,2.378,1.907,4.03,1.737c0.573-0.059,1.2-0.129,1.683-0.405
		c0.823-0.47,1.557-1.096,2.317-1.673c1.75-1.328,3.493-2.667,5.24-3.999c0.913-0.695,1.857-1.353,2.733-2.092
		c0.361-0.304,0.519-0.85,0.878-1.157c1.195-1.025,2.44-1.992,3.668-2.982c1.979-1.597,3.975-3.174,5.919-4.812
		c0.293-0.247,0.415-0.71,0.046-1.199c-0.597-0.793-1.116-1.657-1.564-2.544c-0.624-1.237-1.218-2.499-1.701-3.797
		c-0.475-1.274-0.88-2.588-1.161-3.917c-0.261-1.234-0.376-2.508-0.446-3.77c-0.088-1.552-0.142-3.113-0.058-4.663
		c0.048-0.876,0.412-1.734,0.61-2.606c0.335-1.464,0.68-2.927,0.945-4.404c0.045-0.255-0.209-0.656-0.443-0.844
		c-0.253-0.204-0.528-0.329-0.948,0.064c-0.757,0.708-1.7,1.22-2.584,1.785c-0.313,0.2-0.721,0.263-1.018,0.479
		c-2.115,1.542-4.677,1.719-7.084,2.375l-4.745,0.049c-2.086,0.126-3.948-0.087-5.718-0.926c-3.361-1.594-6.634-3.37-10.032-5.116
		c-0.491,0.592-0.517,1.348-0.428,2.227c0.125,1.233,0.793,2.118,1.442,3.067c1.115,1.632,2.731,2.876,3.43,4.845
		c0.713,2.009,0.999,3.964,0.324,6.021c-0.344,1.048-0.729,2.099-0.906,3.18c-0.383,2.337-0.777,4.685-0.923,7.043
		c-0.176,2.855,0.672,5.401,2.953,7.337c0.866,0.734,1.656,1.557,2.593,2.444c-1.918,0.364-3.557,0.104-5.231-0.335
		c-3.123-0.819-6.157-4.645-6.072-7.993c0.036-1.419,0.168-2.836,0.299-4.25c0.051-0.559,0.369-1.128,0.3-1.658
		c-0.147-1.131-0.441-2.246-0.721-3.355c-0.669-2.648-2.306-4.784-4.178-6.587c-1.84-1.771-3.647-3.537-5.169-5.58
		c-0.882-1.186-1.723-2.399-1.981-3.928c-0.187-1.109-0.363-2.267-0.827-3.272c-0.916-1.984-0.903-4.049-0.77-6.115
		c0.112-1.728,0.406-3.448,0.722-5.153c0.113-0.609-0.143-0.875-0.495-1.247c-0.947-1.003-2-1.955-2.727-3.105
		c-1.151-1.822-2.131-3.759-2.608-5.905c-0.318-1.43-0.221-2.729,0.952-3.747c1.462-1.271,2.942-2.521,4.435-3.755
		c0.355-0.295,0.552-0.526,0.318-1.017c-0.371-0.778-0.644-1.604-0.998-2.392c-1.586-3.521-1.83-7.292-1.849-11.051
		c-0.008-1.568,0.599-3.15,1.006-4.705c0.293-1.116,0.711-2.199,1.089-3.292c0.34-0.984,0.669-1.975,1.061-2.939
		c0.565-1.392,1.152-2.776,1.789-4.135c0.398-0.851,0.906-1.651,1.365-2.474c0.125,0.049,0.251,0.098,0.377,0.148
		c-0.221,1.002-0.344,2.04-0.688,2.999c-0.505,1.411-1.255,2.735-1.742,4.152c-0.601,1.751-1.031,3.562-1.549,5.342
		c-0.734,2.522-1.052,5.094-1.124,7.721c-0.062,2.262,0.36,4.455,0.951,6.578c0.537,1.927,1.449,3.766,2.345,5.569
		c0.802,1.616,2.072,2.91,3.254,4.275c1.188,1.373,2.497,2.712,3.205,4.453c0.054,0.132,0.13,0.271,0.235,0.363
		c1.147,1.02,1.553,2.5,2.258,3.776c0.663,1.201,0.978,2.596,1.439,3.907c0.441,1.254,0.475,2.495-0.117,3.723
		c-0.46,0.956-1.242,1.416-2.261,1.501c-0.934,0.077-1.832,0.004-2.294-0.997c-0.212-0.46-0.389-0.94-0.543-1.423
		c-0.239-0.751-0.555-0.888-1.057-0.291c-0.375,0.443-0.723,1.036-0.782,1.595c-0.296,2.776,2.079,5.895,4.882,6.031
		c1.6,0.078,3.28,0.175,4.917-0.649c1.995-1.005,2.816-2.719,3.332-4.585c0.605-2.191-0.147-4.366-0.838-6.438
		c-0.891-2.679-2.818-4.682-4.813-6.588c-0.987-0.944-2.118-1.744-3.059-2.729c-0.958-1.004-1.787-2.137-2.622-3.251
		c-0.265-0.354-0.304-0.872-0.557-1.24c-0.534-0.777-0.749-1.62-0.811-2.506c-0.169-0.646-0.205-1.312-0.249-1.977
		c-0.331-1.067,0.037-2.105,0.232-3.148c0.007-0.04,0.022-0.081,0.04-0.122c0.064-0.441,0.137-0.882,0.179-1.327
		c0.001-0.013,0.005-0.024,0.007-0.037c0.01-0.329,0.12-0.609,0.313-0.856c0.017-0.033,0.038-0.065,0.067-0.097
		c0.014-0.135,0.087-0.263,0.221-0.32c0.087-0.127,0.2-0.235,0.325-0.328c0.01-0.008,0.021-0.015,0.032-0.022
		c0.089-0.087,0.185-0.167,0.285-0.241c0.059-0.086,0.15-0.146,0.254-0.167c0.133-0.076,0.272-0.137,0.415-0.181
		c0.11-0.081,0.224-0.144,0.347-0.169c0.946-0.199,1.403-0.871,1.982-1.722c0.102,0.367,0.27,0.676,0.196,0.751
		c-0.45,0.465-0.624,1.174-1.294,1.465c-0.045,0.101-0.128,0.183-0.253,0.211c-0.012,0.017-0.021,0.033-0.036,0.049
		c-0.177,0.183-0.423,0.281-0.598,0.462c-0.184,0.189-0.36,0.369-0.515,0.584c-0.402,1.378-0.76,2.779-0.963,4.196
		c-0.319,2.227,0.177,4.414,1.403,6.235c1.003,1.49,2.483,2.659,3.742,3.98c0.577,0.604,1.158,1.209,1.687,1.854
		c0.446,0.545,0.819,1.147,1.315,1.854c0.21-0.371,0.413-0.575,0.44-0.802c0.194-1.572,0.53-3.155,0.475-4.723
		c-0.064-1.828-0.487-3.644-0.737-5.466c-0.059-0.433-0.049-0.874-0.071-1.311c0.087-0.024,0.173-0.048,0.26-0.071
		c0.141,0.284,0.357,0.555,0.411,0.854c0.354,1.974,0.726,3.946,0.979,5.933c0.122,0.957,0.102,1.962-0.047,2.914
		c-0.131,0.837-0.498,1.645-0.827,2.438c-0.266,0.644-0.079,1.102,0.309,1.634c1.122,1.54,2.032,3.202,2.544,5.056
		c0.138,0.497,0.212,1.015,0.379,1.501c0.118,0.341,0.344,0.644,0.619,1.138c1.378,0.186,2.735,0.963,3.98,1.983
		c0.443,0.363,0.902,0.855,1.417,0.953c1.169,0.221,2.028,0.91,2.933,1.562c0.962,0.693,1.702,0.57,2.235-0.429
		c-0.157-0.14-0.314-0.306-0.495-0.437c-1.371-0.992-2.784-1.933-4.109-2.981c-0.777-0.615-1.382-1.443-2.13-2.102
		c-1.048-0.922-2.115-1.804-2.776-3.08c-0.688-1.33-1.598-2.574-2.095-3.969c-0.429-1.202-0.426-2.563-0.58-3.856
		c-0.023-0.198,0.103-0.446,0.228-0.623c0.194-0.276,0.447-0.512,0.675-0.764c0.546-0.021,1.077-0.191,1.607-0.363
		c0.137-0.045,0.282-0.157,0.405-0.136c1.31,0.233,2.766,0.234,3.773,1.167c1.172,1.086,2.148,2.392,3.172,3.632
		c0.81,0.981,1.53,2.039,2.365,2.997c0.231,0.265,0.764,0.458,1.104,0.395c0.585-0.108,0.492-0.661,0.45-1.145
		c-0.128-1.442-0.707-2.697-1.597-3.84c1.569-0.577,3.343,0.329,4.729-0.877c-0.841,0.051-1.662,0.236-2.494,0.323
		c-2.876,0.301-5.337-0.523-7.292-2.731c-0.672-0.762-1.436-1.441-2.148-2.168c-0.559-0.569-1.06-1.205-1.664-1.721
		c-1.542-1.313-3.224-2.477-4.674-3.882c-2.5-2.423-4.114-5.487-5.347-8.676c-1.125-2.909-1.87-5.968-2.728-8.976
		c-0.369-1.295-0.792-2.62-0.855-3.948c-0.13-2.772-0.052-5.556-0.027-8.334c0.007-0.775,0.129-1.549,0.191-2.325
		c0.081-1.003,0.134-2.009,0.237-3.01c0.112-1.09-0.106-2.254,0.775-3.181c0.182-0.191,0.144-0.603,0.182-0.917
		c0.187-1.544,0.332-3.095,0.563-4.632c0.08-0.533,0.361-1.038,0.563-1.55c0.143-0.362,0.311-0.714,0.477-1.093
		c0.364,0.333,0.541-0.034,0.677-0.48c0.076-0.25,0.167-0.498,0.215-0.753c0.302-1.583,1.096-2.947,2.147-4.093
		c1.154-1.259,2.495-2.347,3.78-3.479c0.155-0.137,0.592-0.207,0.698-0.103c0.701,0.687,1.392,1.392,2,2.16
		c1.219,1.539,2.841,2.534,4.503,3.484c1.556,0.891,3.151,1.717,4.668,2.667c1.274,0.797,2.466,1.727,3.687,2.609
		c0.233,0.168,0.451,0.366,0.644,0.58c0.693,0.765,1.379,1.537,2.053,2.318c0.377,0.438,0.781,0.867,1.078,1.357
		c1.211,2.01,2.387,4.041,3.568,6.068c0.105,0.182,0.155,0.396,0.238,0.613c-0.919,0.313-1.782,0.509-2.546,0.901
		c-0.496,0.254-1.127,0.743-1.209,1.212c-0.217,1.233,1.422,2.273,2.63,1.795c0.6-0.237,1.208-0.461,1.825-0.642
		c1.368-0.397,1.371-0.385,2.023,1.151c-3.506-0.241-6.29,0.938-8.081,4.011c1.321-0.605,1.984-2.362,3.754-2.276
		c0.154,0.709,0.29,1.344,0.449,2.087c-0.386-0.026-0.692-0.06-1-0.064c-0.605-0.008-1.214-0.034-1.813,0.022
		c-0.195,0.019-0.368,0.271-0.553,0.416c0.221,0.117,0.434,0.318,0.661,0.334c0.748,0.054,1.521-0.062,2.247,0.077
		c1.337,0.256,2.646,0.652,3.968,0.979c0.505,0.125,0.988,0.243,1.389-0.312c0.216-0.298,0.605-0.47,0.984-0.748
		c0.344,0.883,0.744,1.64,0.931,2.446c0.488,2.115,0.865,4.256,1.321,6.38c0.614,2.854,0.394,5.709,0.087,8.571
		c-0.113,1.065-0.277,2.14-0.236,3.203c0.088,2.3-0.822,4.282-1.787,6.262c-0.111,0.229-0.3,0.432-0.487,0.611
		c-1.438,1.376-2.896,2.729-4.32,4.119c-0.452,0.441-0.815,0.973-1.341,1.611c-0.4,0.217-1.046,0.526-1.649,0.905
		c-0.274,0.173-0.537,0.444-0.682,0.733c-0.802,1.608-0.067,3.236,0.033,4.85c0.059,0.934,0.405,1.852,0.641,2.772
		c0.051,0.193,0.178,0.516,0.279,0.519c0.263,0.011,0.584-0.059,0.779-0.221c0.179-0.147,0.364-0.511,0.3-0.688
		c-0.231-0.631,0.198-1.103,0.287-1.647c0.281-1.735,0.498-3.493,1.528-5c0.551-0.808,1.063-1.648,1.688-2.396
		c0.346-0.413,0.865-0.702,1.347-0.974c0.481-0.271,1.016-0.45,1.474-0.647c0,0.153,0.078,0.513-0.013,0.822
		c-0.39,1.304-0.818,2.597-1.252,3.887c-0.38,1.125-0.938,2.214-1.149,3.368c-0.436,2.383-0.808,4.771-0.356,7.232
		c0.397,2.171,0.816,4.318,1.729,6.338c0.968,2.144,2.353,3.84,4.588,4.858c1.262,0.576,2.481,0.54,3.692,0.288
		c1.426-0.295,2.558-1.256,3.525-2.307c0.535-0.582,1.097-1.334,1.208-2.074c0.258-1.738,0.264-3.458-1.051-4.978
		c-1.338-1.546-2.886-2.008-4.685-1.051c-0.54,0.287-1.188,1.421-1.052,1.974c0.183,0.747,0.568,1.305,1.451,1.407
		c0.26,0.03,0.646,0.343,0.692,0.58c0.127,0.651-0.366,1.189-1.045,1.248c-0.909,0.079-1.675-0.292-2.203-0.987
		c-1.344-1.763-2.312-3.68-2.852-5.883c-0.438-1.792-0.073-3.506-0.069-5.252c0.002-0.418,0.357-0.837,0.555-1.254
		c0.136-0.283,0.309-0.552,0.414-0.845c0.424-1.185,0.816-2.38,1.242-3.563c0.245-0.68,0.853-1.178,0.762-2.05
		c-0.05-0.479,0.364-1.008,0.574-1.512c0.755-1.815,1.461-3.652,2.278-5.438c0.939-2.054,2.051-4.03,2.952-6.099
		c1.182-2.717,1.896-5.569,2.379-8.509c0.705-4.292,0.696-8.515-0.825-12.61c-0.656-1.766-0.974-3.724-2.354-5.178
		c-0.11-0.115-0.229-0.373-0.175-0.468c0.372-0.659-0.15-1.012-0.448-1.44c-0.561-0.809-1.132-1.612-1.699-2.417
		c-0.416-0.589-0.776-1.229-1.261-1.756c-0.834-0.91-1.699-1.803-2.636-2.606c-1.358-1.166-2.764-2.28-4.198-3.352
		c-2.086-1.559-4.214-3.038-6.617-4.115c-1.692-0.757-3.269-1.771-4.896-2.671l0.094-0.243c0.276,0.065,0.571,0.089,0.828,0.202
		c1.846,0.814,3.678,1.661,5.525,2.472c2.835,1.242,5.275,3.123,7.792,4.862c1.494,1.033,2.82,2.316,4.192,3.52
		c1.938,1.698,3.37,3.788,4.563,6.05c0.243,0.46,0.467,0.938,0.634,1.429c0.555,1.631,1.031,3.29,1.628,4.904
		c0.913,2.465,1.229,5.047,1.328,7.624c0.087,2.262-0.093,4.55-0.713,6.771c-0.429,1.534-0.641,3.141-1.19,4.625
		c-1.117,3.017-2.378,5.98-3.617,8.95c-0.906,2.169-1.859,4.317-2.818,6.464c-0.777,1.741-1.508,3.512-2.415,5.185
		c-0.991,1.828-1.428,3.802-1.499,5.799c-0.047,1.309,0.421,2.667,0.821,3.952c0.271,0.869,0.811,1.656,1.262,2.462
		c0.083,0.148,0.31,0.245,0.49,0.297c0.066,0.019,0.242-0.146,0.278-0.257c0.22-0.679,0.42-1.363,0.614-2.05
		c0.285-1.011,1.547-1.775,2.595-1.906c0.985-0.121,1.738,0.303,2.521,0.661c0.605,0.279,1.216,0.686,1.642,1.188
		c1.067,1.257,1.525,2.714,1.109,4.385c-0.161,0.649,0,1.133,0.831,1.19c0.352,0.023,0.865,0.192,0.996,0.451
		c0.335,0.662,0.776,0.66,1.223,0.472c0.421,0.304,0.74,0.579,1.101,0.786c2.242,1.292,4.119,2.936,5.104,5.396
		c0.395,0.985,0.681,2.019,0.956,3.045c0.13,0.484,0.271,1.05,0.142,1.504c-0.763,2.679-2.448,4.561-5.228,5.085
		c-1.697,0.319-2.593,0.151-3.634-1.354c-0.527-0.765-0.776-1.534-1.021-2.405c-0.6-2.138,0.858-4.072,3.08-3.921
		c0.542,0.037,1.11-0.011,1.64-0.137c1.721-0.407,2.349-1.732,1.042-2.953c-0.063-0.059-0.108-0.138-0.153-0.211
		c-0.849-1.371-2.06-2.172-3.685-1.988c-1.28,0.146-2.576,0.406-3.792,0.828c-1.842,0.639-2.681,2.333-3.242,3.979
		c-0.443,1.3-0.39,2.751-0.113,4.203c0.753,3.966,2.775,6.922,6.375,8.769c0.46,0.236,1.006,0.322,1.44,0.593
		c2.059,1.276,4.18,1.373,6.389,0.457c0.827-0.343,1.709-0.576,2.497-0.99c1.518-0.794,2.999-1.663,3.729-3.352
		c0.55-1.271,1.066-2.557,1.684-3.793c0.661-1.326,0.999-2.722,0.949-4.176c-0.064-1.876-0.093-3.779-0.441-5.612
		c-0.396-2.092-0.865-4.249-1.791-6.139c-0.833-1.7-2.178-3.231-3.565-4.556c-1.837-1.754-3.952-3.215-5.911-4.848
		c-0.532-0.444-0.999-1.009-1.367-1.6c-0.313-0.504-0.539-1.107-0.629-1.692c-0.191-1.244-0.416-2.513-0.354-3.757
		c0.069-1.437,0.281-2.908,0.714-4.274c0.355-1.116,0.16-2.28,0.87-3.414c1.181-1.883,1.842-4.082,2.854-6.08
		c1.275-2.516,2.992-4.745,4.89-6.829c0.603-0.661,1.419-1.185,1.841-1.938c0.905-1.61,1.62-3.327,2.404-5.003
		c0.159-0.339,0.322-0.684,0.411-1.044c0.138-0.566,0.19-1.153,0.321-1.721c0.155-0.675,0.417-1.33,0.522-2.011
		c0.442-2.884,0.931-5.765,1.23-8.666c0.225-2.188,0.195-4.402,0.262-6.606C130.833,51.524,130.704,51.368,130.637,51.213z
		 M65.813,91.442c-1.223-2.024-1.555-4.154-1.835-6.3C65.248,86.832,66.076,89.667,65.813,91.442z M63.276,89.675
		c0.49,2.126,1.255,4.188,1.899,6.278c-0.075,0.021-0.151,0.044-0.226,0.065c-2.931-2.896-4.925-8.671-2.709-12.741
		C62.559,85.314,62.781,87.526,63.276,89.675z M61.206,78.698v1.398c-0.48-0.204-0.872-0.37-1.342-0.569
		C60.346,79.229,60.705,79.007,61.206,78.698z M56.605,62.535c-0.819-2.927-0.824-3.311,0-3.41V62.535z M58.115,64.813
		c-0.235-1.512-0.395-3.042-0.729-4.532c-0.297-1.321-0.815-2.591-1.189-3.896c-1.083-3.779-2.783-7.297-4.529-10.798
		c-1.825-3.661-3.668-7.314-5.441-11c-0.913-1.897-1.699-3.856-2.522-5.796c-0.119-0.281-0.122-0.61-0.024-0.983
		c0.175,0.282,0.382,0.55,0.522,0.849c0.955,2.046,1.818,4.139,2.868,6.134c0.678,1.29,1.564,2.485,2.462,3.642
		c1.42,1.829,2.987,3.545,4.375,5.396c0.737,0.981,1.236,2.143,1.828,3.23c0.412,0.758,0.931,1.49,1.169,2.302
		c0.503,1.712,0.878,3.463,1.256,5.209c0.215,0.994,0.47,2.01,0.464,3.014c-0.009,1.696-0.216,3.391-0.328,5.087
		c-0.048,0.715-0.066,1.433-0.097,2.149C58.171,64.817,58.143,64.815,58.115,64.813z M58.207,75.044
		c0.122-1.166,0.244-2.333,0.363-3.476c0.592,0.796,0.55,1.071,0.079,2.008c-0.216,0.43-0.177,0.989-0.253,1.489
		C58.333,75.059,58.27,75.051,58.207,75.044z M58.345,78.074c0.964,0.373,0.679,1.309,1.059,1.853
		C58.497,79.691,58.379,79.001,58.345,78.074z M80.615,37.423c-2.436-1.619-5.112-2.917-7.122-5.124
		c-0.44-0.483-0.805-1.036-1.204-1.556c0.082-0.09,0.163-0.18,0.244-0.27c2.959,2.941,6.2,5.472,10.062,7.102
		c0.046,0.02,0.024,0.205,0.049,0.461C81.905,37.824,81.155,37.782,80.615,37.423z M95.247,63.121
		c-0.199,0.043-0.397,0.091-0.598,0.123c-1.757,0.28-2.356-0.263-2.31-2.194c0.539-0.147,1.103-0.3,1.667-0.454l0.115,0.215
		c-0.336,0.339-1.024,0.584-0.522,1.183c0.175,0.208,0.581,0.356,0.854,0.322c0.856-0.106,1.198-0.69,1.095-1.573
		c0.084-0.025,0.166-0.05,0.25-0.076c0.189,0.299,0.473,0.576,0.547,0.901C96.483,62.158,95.842,62.99,95.247,63.121z
		 M100.563,116.738c-2.321-0.687-3.741-4.558-3.207-6.87C97.971,112.304,98.909,114.588,100.563,116.738z M107.818,76.735
		c0.096-0.346,0.344-0.65,0.521-0.973c0.092,0.018,0.183,0.035,0.272,0.052c-0.173,0.883-0.314,1.773-0.525,2.648
		c-0.735,3.065-2.175,5.825-3.563,8.637c-1.807,3.657-3.238,7.499-4.854,11.251c-0.337,0.782-0.772,1.521-1.163,2.278
		c-0.099-0.033-0.196-0.064-0.295-0.098c0.375-1.718,0.705-3.446,1.142-5.148c0.329-1.289,0.68-2.595,1.227-3.799
		c0.835-1.842,1.805-3.625,2.795-5.389C105.086,83.146,106.879,80.145,107.818,76.735z M98.773,48.526
		c1.573,1.56,3.019,3.258,3.861,5.307c0.767,1.866,1.249,3.85,1.823,5.792c0.336,1.141,0.626,2.295,0.902,3.453
		c0.546,2.282,0.58,4.58,0.341,6.916c-0.253,2.464-0.621,4.886-1.539,7.2c-0.181,0.453-0.362,0.904-0.542,1.356
		c-0.116-1.905,0.324-3.691,0.838-5.486c0.313-1.092,0.344-2.279,0.402-3.428c0.112-2.177,0.124-4.368-0.452-6.487
		c-0.408-1.505-0.94-2.986-1.527-4.433c-0.979-2.413-1.965-4.828-3.105-7.167c-0.645-1.321-1.604-2.49-2.417-3.73
		c-0.041-0.063-0.041-0.155-0.124-0.505C97.867,47.807,98.365,48.121,98.773,48.526z M88.877,42.043
		c0.455,0.352,1.01,0.627,1.349,1.068c1.513,1.968,3.024,3.942,4.424,5.99c1.991,2.915,3.156,6.249,4.582,9.448
		c0.31,0.695,0.49,1.449,0.73,2.176c-0.075,0.036-0.149,0.072-0.225,0.108c-0.235-0.404-0.449-0.822-0.707-1.209
		c-0.524-0.784-1.105-1.53-1.604-2.329c-1.222-1.959-2.467-3.907-3.594-5.92c-1.113-1.991-2.055-4.077-3.149-6.08
		c-0.479-0.878-1.154-1.65-1.73-2.478c-0.119-0.17-0.193-0.372-0.288-0.56C88.736,42.186,88.806,42.115,88.877,42.043z
		 M89.046,44.58c1.071,1.663,1.52,3.482,2.106,5.29c0.249,0.765,0.527,1.521,0.792,2.281c-0.055,0.03-0.108,0.061-0.163,0.092
		c-1.227-2.286-2.415-4.593-3.69-6.852c-1.269-2.245-2.826-4.28-4.802-5.982c0.051-0.071,0.104-0.142,0.155-0.213
		c0.321,0.187,0.661,0.35,0.962,0.565C86.249,41.081,87.794,42.638,89.046,44.58z M125.342,132.552
		c0.412-0.578,0.6-1.381,0.694-2.107c0.367-2.851,0-5.723,0.161-8.582c0.018-0.298-0.132-0.607-0.211-0.909
		c-0.015-0.053-0.089-0.092-0.095-0.143c-0.116-0.9-0.227-1.801-0.339-2.701c0.053-0.02,0.105-0.04,0.158-0.06
		c0.122,0.207,0.289,0.402,0.359,0.627c1.001,3.191,1.846,6.401,1.31,9.806c-0.17,1.07,0.007,2.246-0.369,3.222
		c-0.873,2.26-1.9,4.489-3.963,5.983c-0.395,0.286-0.85,0.504-1.303,0.688c-2.031,0.822-4.089,1.534-6.325,0.904
		c-0.433-0.121-0.838-0.334-1.257-0.504c0.013-0.083,0.024-0.166,0.036-0.249c0.462,0,0.925-0.013,1.386,0.002
		c1.864,0.061,3.531-0.392,5.171-1.377C122.703,135.98,124.079,134.329,125.342,132.552z M116.802,84.163
		c-0.782,1.422-1.665,2.795-2.356,4.26c-0.706,1.497-1.232,3.077-1.831,4.624c-0.168,0.433-0.285,0.885-0.472,1.308
		c-0.926,2.102-1.345,4.332-1.337,6.591c0.01,2.854,0.985,5.437,2.683,7.765c0.912,1.251,1.989,2.321,3.054,3.425
		c0.648,0.673,1.078,1.556,1.609,2.343c0.321,0.475,0.647,0.948,0.977,1.418c0.23,0.329,0.582,0.617,0.689,0.98
		c0.676,2.293,0.971,4.646,1.053,7.104c-0.766-1.528-1.348-3.058-2.241-4.378c-1.134-1.678-2.495-3.209-3.808-4.761
		c-1.17-1.381-2.339-2.774-3.632-4.035c-1.407-1.372-2.374-3.014-2.892-4.831c-0.442-1.558-0.609-3.243-0.594-4.87
		c0.015-1.45,0.285-2.948,0.731-4.333c0.735-2.272,1.612-4.512,2.605-6.686c0.665-1.457,1.529-2.855,2.505-4.126
		c0.656-0.853,1.652-1.446,2.517-2.131c0.263-0.208,0.589-0.335,1.06-0.596C116.989,83.626,116.938,83.917,116.802,84.163z"/>
	<path fill-rule="evenodd" clip-rule="evenodd" d="M129.711,124.772c-0.163-3.187-0.856-6.235-2.142-9.267
		c0.164-0.028,0.474-0.17,0.736-0.107c1.232,0.286,2.259-0.311,3.319-0.726c2.81-1.104,4.369-3.357,5.388-6.051
		c1.161-3.069,0.528-5.909-1.314-8.512c-0.383-0.54-1.035-0.888-1.68-1.419c-0.112,0.417-0.197,0.708-0.271,1.002
		c-0.34,1.363-0.646,2.735-1.029,4.086c-0.17,0.601-1.265,1.034-2.004,0.781c-2.648-0.905-4.481-3.233-3.825-6.414
		c0.384-1.858,1.229-3.441,2.205-5.042c0.938-1.539,1.726-3.232,2.226-4.96c0.819-2.828-0.047-5.511-1.22-8.111
		c-0.494-1.095-0.973-2.135-2.04-2.828c-0.495-0.321-0.514-1.548-0.243-2.194c0.68-1.625,1.399-3.237,1.972-4.899
		c0.517-1.501,0.881-3.057,1.275-4.598c1.054-4.118,1.224-8.326,1.198-12.546c-0.005-0.734-0.219-1.466-0.323-2.202
		c-0.08-0.569-0.13-1.142-0.212-1.71c-0.319-2.196-0.653-4.392-0.96-6.59c-0.036-0.256,0.092-0.532,0.09-0.798
		c-0.001-0.273-0.003-0.58-0.12-0.814c-0.258-0.515-0.588-0.994-0.889-1.487c-0.045-0.074-0.148-0.159-0.134-0.216
		c0.399-1.616-0.898-2.607-1.47-3.842c-0.776-1.678-1.735-3.276-2.679-4.872c-1.026-1.734-2.144-3.414-3.182-5.141
		c-0.728-1.21-1.352-2.485-2.098-3.683c-0.452-0.726-1.049-1.361-1.58-2.037c-0.569-0.724-1.116-1.467-1.713-2.167
		c-0.671-0.788-1.412-1.518-2.071-2.315c-0.297-0.361-0.47-0.825-0.795-1.417c0.466-0.038,0.728-0.081,0.987-0.077
		c3.099,0.038,6.197,0.097,9.295,0.119c1.917,0.013,3.835,0.007,5.749-0.055c1.883-0.061,3.764-0.313,5.645-0.29
		c3.464,0.045,6.928,0.256,10.392,0.347c2.029,0.053,4.06,0.01,6.33,0.01c0.07,1.348,0.164,2.719,0.208,4.092
		c0.021,0.681-0.074,1.365-0.074,2.048c0.001,2.229,0.005,4.46,0.042,6.689c0.02,1.183,0.149,2.364,0.148,3.547
		c-0.001,0.387-0.158,0.866-0.416,1.14c-0.469,0.495-1.104,0.829-1.604,1.299c-1.083,1.018-2.124,2.079-3.183,3.124
		c-0.083,0.081-0.145,0.195-0.241,0.247c-1.938,1.049-2.886,2.959-4.079,4.657c-0.199,0.282-0.482,0.509-0.662,0.802
		c-0.816,1.328-1.59,2.681-2.419,4c-0.319,0.507-0.757,0.938-1.113,1.424c-0.254,0.346-0.489,0.712-0.687,1.093
		c-0.533,1.028-1.162,2.027-1.531,3.113c-0.633,1.859-1.23,3.75-1.589,5.675c-0.309,1.663-0.29,3.39-0.365,5.091
		c-0.047,1.069-0.083,2.152,0.024,3.213c0.246,2.445,0.321,4.951,0.948,7.304c0.825,3.096,2.113,6.077,3.961,8.742
		c1.067,1.54,2.211,3.04,3.443,4.45c1.102,1.262,2.39,2.36,3.563,3.563c0.457,0.47,1.014,0.975,1.18,1.562
		c0.171,0.611,0.016,1.362-0.154,2.012c-0.702,2.676-1.424,5.348-2.222,7.996c-0.314,1.045-0.795,2.051-1.294,3.026
		c-0.985,1.927-2.166,3.765-3.016,5.745c-0.537,1.251-1.498,2.088-2.228,3.139c-1.146,1.648-2.26,3.32-3.424,4.957
		c-0.597,0.84-1.287,1.612-1.909,2.435c-0.947,1.254-1.859,2.533-2.812,3.782c-0.311,0.408-0.699,0.755-1.051,1.13
		C129.884,124.808,129.797,124.79,129.711,124.772z"/>
	<path fill-rule="evenodd" clip-rule="evenodd" d="M160.105,6.666c0.048,0.268,0.142,0.537,0.136,0.804
		c-0.041,1.497-0.106,2.992-0.162,4.489c-0.058,1.571-0.165,3.143-0.155,4.713c0.011,1.765,0.131,3.529,0.2,5.294
		c0.058,1.447,0.133,2.894,0.149,4.342c0.005,0.454-0.205,0.907-0.242,1.367c-0.184,2.312-0.328,4.626-0.528,6.937
		c-0.026,0.298-0.227,0.726-0.466,0.838c-1.905,0.89-3.374,2.274-4.789,3.8c-0.97,1.046-2.162,1.932-3.378,2.695
		c-2.052,1.287-3.668,2.961-5,4.95c-0.354,0.529-0.795,1.004-1.107,1.554c-1.347,2.366-2.471,4.817-2.911,7.543
		c-0.269,1.659-0.69,3.292-0.973,4.949c-0.469,2.734,0.027,5.422,0.42,8.124c0.622,4.281,2.633,7.875,5.226,11.232
		c1.466,1.898,3.285,3.319,5.344,4.51c1.4,0.81,2.711,1.775,4.071,2.654c0.487,0.314,0.647,0.714,0.475,1.262
		c-0.271,0.856-0.701,1.704-0.758,2.574c-0.067,1.058-0.588,1.924-0.848,2.892c-0.603,2.237-1.293,4.451-1.988,6.662
		c-0.424,1.352-0.88,2.696-1.399,4.015c-0.398,1.013-0.853,2.016-1.397,2.957c-1.289,2.231-2.592,4.458-3.99,6.622
		c-1.646,2.546-3.379,5.038-5.109,7.528c-1.008,1.449-2.028,2.895-3.143,4.262c-1.824,2.237-3.669,4.466-5.621,6.59
		c-1.258,1.37-2.733,2.537-4.093,3.815c-0.482,0.453-0.912,0.965-1.362,1.452c-1.33,1.438-2.657,2.878-3.99,4.313
		c-0.137,0.147-0.288,0.298-0.461,0.396c-1.271,0.717-2.291,1.716-3.232,2.811c-0.068,0.079-0.165,0.136-0.416,0.338
		c0.199-1.585,0.359-2.985,0.57-4.38c0.031-0.202,0.271-0.426,0.471-0.54c1.472-0.841,2.978-1.62,4.432-2.489
		c1.256-0.751,2.309-1.674,2.827-3.161c0.509-1.457,1.356-2.8,1.825-4.269c0.32-1.003,0.228-2.135,0.368-3.203
		c0.034-0.251,0.219-0.521,0.408-0.706c2.251-2.181,4.114-4.652,5.787-7.302c1.128-1.784,2.528-3.394,3.718-5.143
		c1.215-1.788,2.321-3.649,3.474-5.479c0.494-0.785,0.938-1.605,1.484-2.351c1.247-1.702,2.087-3.596,2.731-5.582
		c0.742-2.288,1.442-4.588,2.163-6.883c0.269-0.854,0.498-1.726,0.843-2.549c0.132-0.314,0.497-0.612,0.826-0.75
		c1.68-0.703,3.389-1.339,5.072-2.035c0.196-0.082,0.295-0.399,0.439-0.607c-0.252-0.032-0.54-0.161-0.752-0.083
		c-1.742,0.636-3.466,1.327-5.211,1.956c-0.229,0.083-0.649,0.007-0.814-0.16c-1.802-1.839-3.577-3.703-5.346-5.573
		c-1.455-1.54-2.607-3.297-3.775-5.063c-1.249-1.888-2.209-3.901-2.858-6.018c-0.53-1.725-0.732-3.579-0.868-5.391
		c-0.195-2.63-0.291-5.275-0.246-7.911c0.022-1.43,0.307-2.886,0.684-4.272c0.558-2.052,1.129-4.133,2.015-6.054
		c1.036-2.247,2.324-4.394,3.668-6.478c2.236-3.464,5.203-6.276,8.346-8.913c0.789-0.664,1.481-1.444,2.262-2.12
		c0.654-0.568,1.26-0.065,1.804,0.254c1.118,0.657,2.184,1.405,3.313,2.045c0.201,0.115,0.597-0.11,0.902-0.178
		c-0.105-0.271-0.13-0.66-0.328-0.793c-1.343-0.903-2.707-1.777-4.098-2.607c-0.711-0.424-0.693-1.068-0.721-1.736
		c-0.136-3.329,0.279-6.661-0.145-9.995c-0.196-1.543-0.221-3.13-0.113-4.683c0.054-0.79,0.396-1.701,0.913-2.29
		c1.408-1.604,2.992-3.053,4.475-4.594c0.317-0.33,0.499-0.79,0.744-1.189C159.965,6.672,160.035,6.669,160.105,6.666z"/>
	<path fill-rule="evenodd" clip-rule="evenodd" d="M72.684,17.945c0.571-0.258,0.989-0.501,1.438-0.641
		c2.151-0.665,4.307-1.312,6.467-1.944c1.323-0.388,2.654-0.748,3.989-1.097c0.275-0.072,0.59-0.1,0.865-0.044
		c1.81,0.366,3.61,0.159,5.429,0.063c1.063-0.055,2.148,0.382,3.228,0.577c1.684,0.304,3.409,0.452,5.045,0.917
		c2.166,0.615,4.262,1.477,6.391,2.224c0.47,0.165,0.976,0.242,1.425,0.446c1.813,0.823,3.701,1.534,5.389,2.568
		c1.372,0.841,2.853,1.632,3.85,3.013c0.402,0.557,0.941,1.018,1.433,1.507c1.719,1.709,2.921,3.791,4.201,5.814
		c0.277,0.438,0.579,0.863,0.842,1.309c0.54,0.913,1.09,1.822,1.582,2.76c0.717,1.366,1.575,2.698,2.031,4.151
		c0.625,1.997,0.946,4.092,1.363,6.151c0.126,0.622,0.114,1.269,0.202,1.9c0.28,2.021,0.397,4.031-0.076,6.05
		c-0.194,0.832-0.152,1.719-0.33,2.557c-0.48,2.266-0.897,4.558-1.578,6.767c-0.564,1.831-1.225,3.688-2.751,5.081
		c0.322-1.446,0.686-2.885,0.96-4.341c0.343-1.825,0.602-3.665,0.921-5.495c0.134-0.77,0.379-1.522,0.475-2.294
		c0.082-0.66,0.002-1.337,0.029-2.005c0.071-1.677,0.301-3.36,0.215-5.026c-0.125-2.423-0.435-4.839-0.733-7.249
		c-0.349-2.813-1.92-5.02-3.849-6.933c-1.464-1.452-3.121-2.72-4.763-3.98c-1.899-1.461-3.854-2.853-5.828-4.214
		c-0.782-0.539-1.657-0.955-2.523-1.355c-1.128-0.522-2.283-0.988-3.438-1.453c-2.616-1.054-5.373-1.45-8.162-1.5
		c-3.702-0.065-7.303-0.743-10.906-1.491c-2.071-0.43-4.17-0.727-6.242-1.153c-2.036-0.419-4.055-0.924-6.08-1.397
		C73.065,18.159,72.952,18.076,72.684,17.945z"/>
	<path fill-rule="evenodd" clip-rule="evenodd" d="M126.951,76.945c1.063,0.516,1.578,1.54,2.12,2.498
		c1.215,2.147,1.489,4.49,1.248,6.907c-0.045,0.458-0.116,0.948-0.32,1.35c-0.915,1.803-1.933,3.557-2.817,5.374
		c-0.979,2.015-1.779,4.108-1.951,6.372c-0.033,0.436,0.139,0.926,0.336,1.331c0.779,1.602,1.356,3.38,2.89,4.444
		c1.222,0.849,2.663,1.188,4.098,0.559c1.22-0.536,1.546-1.743,1.752-2.937c0.093-0.539,0.025-1.104,0.108-1.645
		c0.038-0.25,0.263-0.471,0.403-0.703c0.188,0.148,0.499,0.266,0.544,0.45c0.292,1.174,0.55,2.358,0.771,3.547
		c0.327,1.762-0.122,3.438-0.915,4.957c-0.532,1.02-1.378,1.902-2.186,2.75c-1.358,1.427-3.121,2.076-5.048,2.246
		c-0.375,0.033-0.892-0.137-1.147-0.401c-1.006-1.044-1.9-2.193-2.9-3.242c-0.817-0.858-1.702-1.655-2.599-2.434
		c-0.979-0.85-1.985-1.671-3.017-2.458c-1.418-1.088-2.015-2.636-2.528-4.258c-0.588-1.854-0.068-3.673,0.126-5.499
		c0.092-0.86,0.238-1.727,0.478-2.557c0.229-0.79,0.602-1.54,0.923-2.303c1.019-2.42,2.147-4.784,3.751-6.879
		c0.606-0.793,1.348-1.48,1.991-2.248c0.463-0.553,0.857-1.164,1.299-1.737c0.399-0.52,0.836-1.012,1.227-1.538
		C126.045,78.274,126.472,77.632,126.951,76.945z M132.136,108.69c-0.471,0.204-0.934,0.429-1.413,0.609
		c-1.92,0.727-3.899,1.262-5.626-0.296c-1.349-1.219-2.599-2.58-3.699-4.025c-0.624-0.82-0.858-1.937-1.25-2.872
		c-0.238,0.509,0.156,2.694,0.538,3.455c0.586,1.163,1.066,2.381,2.34,2.996c0.047,0.022,0.098,0.088,0.103,0.138
		c0.07,0.787,0.733,0.966,1.276,1.306C127.215,111.761,129.999,111.561,132.136,108.69z M117.087,93.447
		c-0.279,0.83-0.269,1.595,0.005,2.491c0.448,1.469,0.576,3.038,0.814,4.569c0.102,0.654,0.141,1.318,0.208,1.979
		c0.218-0.179,0.266-0.354,0.277-0.534c0.057-0.837,0.105-1.675,0.153-2.513C118.665,97.306,118.609,95.211,117.087,93.447z"/>
	<path fill-rule="evenodd" clip-rule="evenodd" d="M72.926,155.783c-0.433-0.451-0.93-0.842-1.356-1.299
		c-0.665-0.714-1.354-1.417-1.921-2.205c-1.249-1.735-1.042-3.584-0.458-5.533c0.406-1.356,0.486-2.812,0.701-4.224
		c0.221-1.453,0.363-2.922,0.662-4.358c0.284-1.358,0.83-2.674,0.495-4.1c-0.203-0.866-0.354-1.756-0.666-2.582
		c-0.333-0.881-0.712-1.789-1.28-2.525c-0.907-1.171-1.776-2.331-2.435-3.678c-0.911-1.862-1.344-3.689-0.378-5.649
		c0.051-0.104-0.007-0.263-0.014-0.392c-1.397,0.082-2.739,0.17-4.082,0.233c-0.277,0.013-0.597,0.004-0.832-0.119
		c-0.501-0.262-0.96-0.604-1.433-0.918c-1.496-0.994-2.929-1.951-3.421-3.928c-0.368-1.478-0.24-2.743,0.321-4.108
		c0.56-1.363,1.328-1.561,2.712-1.271c0.026,0.155,0.114,0.341,0.072,0.49c-0.382,1.368,0.544,1.947,1.496,2.497
		c0.718,0.415,2.35-0.479,2.276-1.284c-0.076-0.824-0.206-1.676-0.5-2.444c-0.632-1.645-1.355-3.258-2.099-4.857
		c-0.545-1.17-1.162-2.311-1.786-3.442c-0.541-0.982-1.124-1.942-1.719-2.892c-0.099-0.159-0.357-0.218-0.594-0.352
		c-0.225,0.671-0.446,1.229-0.594,1.804c-0.18,0.693-0.239,1.421-0.456,2.101c-0.253,0.795-0.703,1.53-0.921,2.332
		c-0.799,2.947-1.503,5.92-2.309,8.865c-0.514,1.882-0.216,3.742,0.093,5.574c0.295,1.751,0.88,3.454,1.313,5.184
		c0.723,2.888,2.349,5.206,4.632,7.029c0.689,0.551,1.479,0.958,2.042,1.687c0.546,0.705,1.203,1.325,1.755,2.026
		c0.292,0.372,0.463,0.838,0.688,1.262c0.109-0.058,0.219-0.114,0.328-0.171c-1.034-1.975-1.974-4.007-3.132-5.905
		c-0.992-1.626-1.534-3.275-1.387-5.183c0.046-0.607-0.152-1.234-0.196-1.552c0.373-1.058,0.672-1.908,0.977-2.773
		c0.556,0.212,1.038,0.396,1.425,0.543c-0.311,0.835-0.624,1.64-0.91,2.454c-0.766,2.175-0.666,4.306,0.967,6.001
		c1.996,2.073,3.527,4.348,4.354,7.119c0.562,1.885,0.883,3.756,0.384,5.733c-0.138-0.44-0.276-0.881-0.414-1.322
		c-0.122,0.308-0.08,0.581-0.069,0.856c0.077,2.02,0.287,4.046,0.177,6.057c-0.089,1.633-0.211,3.104,0.661,4.668
		c1.582,2.836,3.965,4.375,7.106,5.197C73.094,156.163,73.062,155.924,72.926,155.783z M59.703,102.507
		c0.624,0.551,0.955,1.332,0.892,2.201c-0.048,0.672-0.324,1.331-0.515,1.99c-0.096,0.332-0.211,0.66-0.349,0.977
		c-0.071,0.164-0.188,0.398-0.321,0.428c-0.576,0.126-1.167,0.188-1.942,0.3C58.227,106.402,58.952,104.488,59.703,102.507z
		 M54.616,115.303c-0.702,0.689-0.759,1.55-1.162,2.3c-0.045,0.085-0.085,0.175-0.157,0.322c-0.425-1.398,0.76-4.385,2.063-5.295
		C56.174,113.852,55.248,114.684,54.616,115.303z M68.647,134.246c0.003-0.015,0.002-0.031,0.003-0.046
		c0-0.007-0.004-0.012-0.004-0.019c-0.001-0.056-0.006-0.108-0.024-0.161c-0.001-0.005,0-0.009,0-0.013
		c-0.008-0.016-0.012-0.035-0.013-0.057c0-0.033-0.01-0.064-0.023-0.096c-0.002-0.003-0.006-0.005-0.007-0.009
		c-0.045-0.089-0.086-0.181-0.118-0.275c-0.017-0.019-0.027-0.042-0.031-0.067c-0.011-0.012-0.022-0.021-0.03-0.037
		c-0.022-0.045-0.045-0.09-0.067-0.135c-0.003-0.006-0.004-0.012-0.006-0.017c-0.023-0.026-0.037-0.059-0.047-0.091
		c-0.006-0.006-0.011-0.012-0.017-0.018c-0.003-0.002-0.003-0.006-0.006-0.009c-0.015-0.006-0.029-0.012-0.044-0.018
		c0.002-0.016,0.002-0.029,0.004-0.044c-0.007-0.013-0.007-0.025-0.012-0.038c-0.042-0.056-0.054-0.126-0.048-0.196
		c-0.144-0.33-0.272-0.669-0.468-0.969c-0.288-0.44-0.682-0.79-1.019-1.19c-0.022-0.01-0.038-0.028-0.05-0.048
		c-0.017-0.009-0.03-0.021-0.04-0.036c-0.018-0.007-0.036-0.011-0.054-0.022c-0.545-0.361-1.013-0.815-1.481-1.269
		c-0.018-0.017-0.029-0.034-0.039-0.053c-0.031-0.011-0.053-0.031-0.066-0.057c-0.791-0.489-1.32-1.306-2.057-1.857
		c-1.144-0.855-1.544-2.131-1.457-3.546c0.067-1.066,0.152-2.133,0.241-3.198c0.033-0.394,0.158-0.697,0.713-0.425
		c-0.116,0.978-0.342,1.966-0.329,2.95c0.033,2.454,1.28,4.215,3.322,5.511c0.9,0.57,1.677,1.249,2.315,2.068
		c0.381,0.384,0.698,0.847,0.856,1.349c0.228,0.446,0.427,0.925,0.592,1.44c-0.003-0.001-0.007-0.003-0.011-0.004
		c0.013,0.041,0.007,0.087-0.015,0.123c-0.004,0.059-0.024,0.116-0.063,0.161c-0.002,0.005-0.006,0.008-0.01,0.012
		c-0.007,0.023-0.014,0.048-0.024,0.071c-0.001,0.022-0.002,0.045-0.006,0.068c-0.006,0.038-0.025,0.063-0.05,0.079
		c0,0.02-0.005,0.039-0.014,0.057c-0.012,0.067-0.024,0.134-0.037,0.2C68.873,134.488,68.614,134.416,68.647,134.246z"/>
	<path fill-rule="evenodd" clip-rule="evenodd" d="M159.45,6.102c-1.172,1.102-2.327,2.163-3.453,3.255
		c-0.789,0.765-1.527,1.581-2.305,2.357c-0.574,0.574-1.276,0.678-2.069,0.575c-0.655-0.085-1.327-0.058-1.992-0.056
		c-2.344,0.006-4.689,0.013-7.033,0.04c-1.245,0.015-2.491,0.1-3.735,0.101c-0.838,0-1.673-0.12-2.51-0.131
		c-0.651-0.008-1.303,0.082-1.954,0.096c-0.173,0.004-0.385,0.021-0.5-0.096c-0.446,0.042-0.28-0.411-0.671,0.037
		c-0.065,0.076-0.29,0.051-0.41,0.05c-2.649-0.031-5.3-0.103-7.95-0.093c-2.252,0.009-4.504,0.115-6.757,0.172
		c-1.815,0.045-3.631,0.104-5.447,0.101c-0.402-0.001-0.909-0.131-1.189-0.393c-1.161-1.086-2.236-2.266-3.383-3.368
		c-0.492-0.473-1.087-0.837-1.627-1.26c-0.248-0.194-0.529-0.376-0.692-0.631c-0.081-0.127,0.016-0.539,0.13-0.587
		c0.392-0.165,0.826-0.31,1.245-0.314c4.093-0.044,8.186-0.107,12.278-0.067c4.732,0.046,9.464,0.24,14.196,0.275
		c3.102,0.023,6.204-0.145,9.307-0.185c2.551-0.032,5.118,0.173,7.649-0.045c2.869-0.247,5.697,0.533,8.55,0.103
		C159.271,6.015,159.432,6.098,159.45,6.102z"/>
	<polyline fill-rule="evenodd" clip-rule="evenodd" points="132.938,12.33 134.284,12.341 134.053,11.906 133.378,11.747 
		132.743,11.839 	"/>
	<path fill-rule="evenodd" clip-rule="evenodd" d="M114.07,141.037c1.502,0.097,2.868,0.186,4.183,0.271
		c-0.527,1.667-0.817,3.198,0.146,4.762c0.341,0.554,0.349,1.303,0.595,1.928c0.219,0.552,0.526,1.077,0.853,1.575
		c0.515,0.787,1.241,1.124,2.177,0.813c0.886-0.293,1.541-0.745,1.512-1.844c-0.016-0.577,0.453-0.766,0.891-0.366
		c0.302,0.274,0.594,0.687,0.655,1.074c0.153,0.97,0.32,1.979,0.197,2.936c-0.092,0.719-0.489,1.51-0.991,2.04
		c-0.874,0.92-1.783,1.813-3.177,2.095c-1.338,0.269-2.334-0.091-2.706-1.397c-0.34-1.195-0.555-2.433-0.969-3.6
		c-0.252-0.71-0.772-1.326-1.182-1.979c-0.059-0.094-0.25-0.181-0.236-0.231c0.277-1.023-0.646-1.502-1.053-2.175
		c-0.512-0.842-0.904-1.657-0.896-2.649C114.079,143.199,114.07,142.109,114.07,141.037z"/>
	<path fill-rule="evenodd" clip-rule="evenodd" d="M67.024,80.123c-0.401,0.46-0.708,0.813-1.043,1.196
		c-0.548-0.416-0.767-0.916-0.807-1.566c-0.08-1.282-0.199-2.564-0.357-3.839c-0.118-0.947-0.278-1.896-0.504-2.823
		c-0.35-1.436,0.204-2.799,0.259-4.201c0.053-1.374,0.327-2.74,0.35-4.112c0.021-1.311-0.546-1.815-1.792-2.273
		c-0.501-0.184-0.882-0.695-1.44-1.16c2.308-0.654,4.324-1.356,6.398-1.763c1.27-0.249,2.629-0.046,4.063-0.046
		c-0.087,0.449-0.125,0.644-0.164,0.839c0.051-0.07,0.102-0.14,0.152-0.21c1.211,0.493,2.495,0.862,3.608,1.521
		c0.783,0.463,1.333,1.319,1.987,2c-0.078,0.097-0.155,0.193-0.233,0.289c-0.659-0.421-1.381-0.769-1.958-1.283
		c-0.586-0.521-1.11-1.06-2.098-1.15c0.112,0.48,0.199,0.854,0.273,1.171c-0.213,0.384-0.417,0.751-0.621,1.119
		c0.117,0.104,0.234,0.208,0.351,0.312c0.064-0.197,0.128-0.394,0.133-0.409c0.983,0.146,1.928,0.285,2.873,0.424
		c-0.003,0.069-0.006,0.138-0.009,0.208c-1.31,0.101-2.638-0.056-3.868,0.65c-1.142,0.656-2.403,1.104-3.584,1.631
		c-0.009,0.054,0.011-0.065,0.062-0.36c-0.609,0.468-1.131,0.869-1.652,1.271c-0.054-0.044-0.108-0.087-0.162-0.131
		c0.065-0.286,0.13-0.572,0.208-0.916c-0.411,0-0.783,0-1.317,0c-1.842,1.923-0.748,4.422-0.855,6.894
		c-0.195-0.24-0.304-0.374-0.412-0.507c-0.07,0.018-0.141,0.036-0.211,0.054c0.146,0.522,0.271,1.052,0.447,1.564
		c0.106,0.308,0.336,0.574,0.437,0.883C66.049,76.979,66.538,78.569,67.024,80.123z M72.142,63.014
		c-0.728,1.167-1.893,1.167-2.545,0.078c-0.092-0.153-0.304-0.377-0.405-0.352c-0.187,0.047-0.456,0.244-0.47,0.4
		c-0.033,0.344-0.038,0.772,0.138,1.04c0.585,0.893,1.365,1.098,2.382,0.74c1.043-0.366,1.705-1.518,1.348-2.525
		c-0.085-0.238-0.559-0.395-0.881-0.464c-0.125-0.027-0.324,0.291-0.489,0.451c0.205,0.174,0.405,0.353,0.617,0.519
		C71.897,62.95,71.989,62.96,72.142,63.014z M66.008,62.958c-0.028,0.079-0.055,0.158-0.083,0.237
		c0.616,0.531,1.231,1.062,1.847,1.592c0.047-0.059,0.094-0.118,0.142-0.176c-0.24-0.603-0.479-1.206-0.733-1.844
		C66.783,62.832,66.395,62.894,66.008,62.958z M65.463,63.203c-0.067,0.085-0.135,0.169-0.203,0.254
		c0.842,0.67,1.685,1.34,2.527,2.011c0.06-0.075,0.119-0.149,0.178-0.224C67.131,64.564,66.298,63.883,65.463,63.203z
		 M70.992,60.535c-0.014-0.106-0.028-0.213-0.042-0.319c-0.61,0.049-1.222,0.099-1.832,0.149c0.009,0.113,0.019,0.226,0.029,0.338
		C69.762,60.646,70.377,60.591,70.992,60.535z"/>
	<path fill-rule="evenodd" clip-rule="evenodd" d="M92.234,86.79c-1.179,0.529-2.327,1.043-3.476,1.56
		c-1.476,0.664-2.929,1.388-4.435,1.978c-1.168,0.457-2.414,0.367-3.596-0.006c-1.429-0.448-2.829-0.989-4.239-1.494
		c-0.245-0.088-0.494-0.173-0.721-0.297c-0.867-0.472-1.751-0.699-2.748-0.423c-0.336,0.093-0.73-0.022-1.098-0.042
		c-0.009-0.106-0.019-0.212-0.028-0.318c0.247-0.079,0.489-0.198,0.742-0.229c2.641-0.332,4.946-1.537,7.216-2.806
		c0.537-0.301,0.802,0.066,1.206,0.144c1.055,0.203,2.094,0.646,3.217,0.108c1.365-0.654,2.647,0.018,3.933,0.435
		c0.575,0.186,1.17,0.308,1.745,0.491c0.316,0.102,0.604,0.287,0.916,0.409C91.29,86.464,91.722,86.606,92.234,86.79z M84.616,87.37
		c-0.259,0.242-0.471,0.44-0.751,0.702c0.305,0.175,0.484,0.279,0.696,0.402c-0.123,0.272-0.229,0.507-0.354,0.784
		C85.224,88.959,85.378,88.302,84.616,87.37z M83.672,88.663c-0.216-0.256-0.345-0.407-0.474-0.56
		c-0.179,0.216-0.432,0.409-0.507,0.656c-0.039,0.13,0.232,0.354,0.363,0.535C83.239,89.106,83.424,88.917,83.672,88.663z"/>
	<path fill-rule="evenodd" clip-rule="evenodd" d="M118.523,123.809c0.23,0.468,0.501,0.922,0.685,1.408
		c0.516,1.365,0.716,2.867,0.217,4.17c-0.515,1.347-1.357,2.657-2.924,3.2c-0.781,0.271-1.454,0.782-2.379,0.654
		c-1.282-0.179-2.162-0.823-2.469-2.072c-0.309-1.261-0.611-2.585,0.644-3.515c0.838-0.621,1.816-0.987,2.921-0.884
		c1.025,0.098,2.004-0.039,2.538-1.073c0.208-0.402,0.265-0.884,0.383-1.33c0.041-0.152,0.062-0.312,0.09-0.468
		C118.327,123.869,118.426,123.838,118.523,123.809z"/>
	<path fill-rule="evenodd" clip-rule="evenodd" d="M60.212,59.164c-0.229-0.761,0.492-1.151,0.847-1.488
		c1.33-1.26,2.881-2.082,4.835-1.923c2.01,0.164,4.042,0.11,6.039,0.358c1.146,0.142,2.271,0.622,3.34,1.097
		c0.415,0.185,0.798,0.732,0.935,1.191c0.311,1.044-0.587,1.766-1.692,1.406c-1.57-0.511-3.099-1.189-4.7-1.558
		c-1.888-0.435-3.827-0.74-5.759-0.863c-1.355-0.086-2.538,0.635-3.485,1.646c-0.057,0.06-0.125,0.112-0.192,0.161
		C60.364,59.202,60.327,59.184,60.212,59.164z"/>
	<path fill-rule="evenodd" clip-rule="evenodd" d="M81.8,79.191c-0.584-0.162-0.976-0.27-1.368-0.379
		c-0.288,0.789,0.363,2.165,1.134,2.369c0.056,0.014,0.143,0.05,0.167,0.026c0.636-0.607,1.47-0.271,2.177-0.471
		c0.958-0.273,1.233-0.955,1.008-2.098c-0.27,0-0.546,0-0.844,0c0.764-1.552,1.36-1.894,2.926-1.769
		c0.369,0.03,0.747-0.042,0.965-0.057c1.312-1.427,0.19-2.79,0.035-4.156c0.101-0.037,0.199-0.073,0.299-0.11
		c0.507,0.989,1.118,1.94,1.486,2.978c0.272,0.769-0.662,1.811-1.572,1.994c-1.68,0.337-1.73,0.329-1.99,2.034
		c-0.153,1.014-0.389,1.894-1.308,2.5c-0.348,0.229-0.548,0.667-0.863,0.96c-0.675,0.628-1.278,0.561-1.853-0.142
		c-0.158-0.193-0.336-0.447-0.55-0.502c-1.699-0.439-2.459-1.65-2.629-3.264c-0.081-0.771-0.511-1.043-1.125-1.202
		c-0.843-0.219-1.732-0.333-1.902-1.449c-0.17-1.112,0.025-2.057,0.964-2.8c0.312-0.248,0.488-0.665,0.726-1.005
		c0.068,0.033,0.136,0.066,0.205,0.099c-0.35,0.667-0.663,1.358-1.061,1.996c-0.352,0.563-0.466,1.099-0.203,1.723
		c0.225,0.533,0.938,0.859,1.48,0.639c0.772-0.313,1.846-0.025,2.416,0.638C80.874,78.153,81.238,78.555,81.8,79.191z"/>
	<path fill-rule="evenodd" clip-rule="evenodd" d="M115.865,120.966c-1.905-0.835-3.648-0.71-5.397-0.511
		c-0.442,0.051-0.883,0.122-1.327,0.165c-0.388,0.036-0.626-0.166-0.376-0.507c0.476-0.648,1.027-1.241,1.563-1.844
		c0.052-0.059,0.229-0.055,0.324-0.017c1.525,0.608,3.054,1.21,4.561,1.861C115.434,120.209,115.553,120.543,115.865,120.966z"/>
	<path fill-rule="evenodd" clip-rule="evenodd" d="M83.545,185.572c-0.28-0.386-0.578-0.761-0.834-1.161
		c-0.297-0.462-0.243-1.229-1.106-1.187c-0.09,0.005-0.262-0.251-0.28-0.399c-0.104-0.86-0.211-1.725-0.229-2.588
		c-0.005-0.267,0.248-0.557,0.439-0.79c0.041-0.049,0.388,0.058,0.492,0.179c0.193,0.226,0.311,0.514,0.46,0.775
		c-0.074,0.049-0.149,0.096-0.223,0.145c-0.228-0.169-0.457-0.338-0.686-0.506c-0.073,0.025-0.146,0.053-0.218,0.079
		c0.091,0.795,0.182,1.589,0.272,2.384c0.074,0.018,0.148,0.033,0.222,0.051c0.122-0.188,0.243-0.376,0.439-0.678
		c0.348,1.01,0.674,1.956,1.069,3.102c0.453-0.516,0.708-0.806,0.962-1.096c0.084,0.039,0.169,0.079,0.253,0.118
		c-0.244,0.524-0.488,1.047-0.732,1.57C83.745,185.571,83.645,185.571,83.545,185.572z"/>
	<path fill-rule="evenodd" clip-rule="evenodd" d="M92.443,173.1c0.22,0.547,0.468,1.084,0.652,1.644
		c0.373,1.123,0.947,1.547,1.831,1.295c-0.303,0.817-0.426,0.833-1.438,0.094c-0.038,0.259-0.082,0.462-0.097,0.667
		c-0.042,0.605,0.04,1.276-0.867,1.33c-0.084,0.004-0.18,0.18-0.232,0.295c-0.31,0.664-0.566,0.741-1.148,0.258
		c-0.397-0.33-0.756-0.709-1.106-1.091c-0.063-0.069-0.059-0.303,0.006-0.363c0.069-0.067,0.296-0.077,0.368-0.014
		c0.216,0.19,0.374,0.444,0.582,0.644c0.229,0.218,0.486,0.403,0.847,0.696c0.109-0.529,0.179-0.859,0.247-1.189
		c0.873,0.326,0.926,0.265,0.93-0.785c0.074-0.139,0.24-0.3,0.21-0.411c-0.17-0.639-0.38-1.268-0.59-1.895
		c-0.119-0.354-0.265-0.7-0.399-1.05C92.307,173.183,92.374,173.141,92.443,173.1z"/>
	<path fill-rule="evenodd" clip-rule="evenodd" d="M86.179,182.477c0.148,0.505-0.01,0.852-0.52,0.525
		c-0.502-0.321-1.048-0.783-1.253-1.309c-0.283-0.724-0.305-1.563-0.348-2.358c-0.014-0.266,0.253-0.545,0.502-0.81
		c0.48,0.892,0.621,1.813,0.478,2.79C84.888,182.345,85.24,182.701,86.179,182.477z"/>
	<path fill-rule="evenodd" clip-rule="evenodd" d="M87.483,179.944c0.159,0.119,0.357,0.209,0.471,0.361
		c0.47,0.634,0.91,0.873,1.347-0.24c0.043,0.082,0.086,0.163,0.13,0.246c-0.047,0.222-0.019,0.558-0.153,0.649
		c-0.621,0.419-1.252,0.88-1.95,1.114c-0.575,0.193-1.095-0.59-1.188-1.606c-0.048-0.518,0.527-1.385,0.972-1.382
		c0.715,0.006,0.409,0.521,0.391,0.884c-0.243-0.064-0.486-0.128-0.729-0.192c-0.021,0.46-0.101,0.931-0.031,1.378
		c0.027,0.181,0.384,0.31,0.59,0.463c0.123-0.193,0.347-0.387,0.349-0.58C87.682,180.675,87.556,180.31,87.483,179.944z"/>
	<path fill-rule="evenodd" clip-rule="evenodd" d="M79.029,73.035c0,0.942,0,1.885,0,2.636c0.96,0.426,1.713,0.76,2.466,1.093
		c-0.006,0.059-0.012,0.118-0.019,0.177c-0.169,0.025-0.357,0.112-0.503,0.065c-0.629-0.202-1.292-0.365-1.847-0.701
		c-0.299-0.18-0.573-0.684-0.563-1.033c0.022-0.765,0.233-1.523,0.366-2.284C78.963,73.004,78.996,73.019,79.029,73.035z"/>
	<path fill-rule="evenodd" clip-rule="evenodd" d="M97.902,174.097c-0.202-0.043-0.402-0.113-0.606-0.124
		c-0.198-0.012-0.399,0.037-0.494,0.048c-0.124-0.878-0.249-1.77-0.385-2.736c0.18-0.061,0.437-0.146,0.666-0.222
		c0.782,0.847-0.309,2.184,0.968,2.821C98.001,173.954,97.952,174.026,97.902,174.097z"/>
	<path fill-rule="evenodd" clip-rule="evenodd" d="M89.84,179.629c0.079-0.271,0.135-0.454,0.189-0.637
		c0.042-0.005,0.084-0.011,0.127-0.016c0.065,0.47,0.131,0.94,0.219,1.562c-1.15-0.416-1.243-1.304-1.63-1.985
		c0.063-0.049,0.126-0.099,0.188-0.147C89.218,178.789,89.503,179.174,89.84,179.629z"/>
	<path fill-rule="evenodd" clip-rule="evenodd" d="M80.082,62.79c0.404,1.148,0.103,2.324-0.066,3.494
		c-0.073-1.161-0.146-2.322-0.22-3.482C79.891,62.797,79.987,62.793,80.082,62.79z"/>
	<path fill-rule="evenodd" clip-rule="evenodd" d="M63.742,136.075c0.507,0.136,1.208,1.509,1.339,2.719
		C64.641,137.9,64.201,137.006,63.742,136.075z"/>
	<path fill-rule="evenodd" clip-rule="evenodd" d="M84.359,91.84c-0.677,0.351-1.367,0.525-2.093,0.259
		c-0.009-0.107-0.02-0.217-0.029-0.324c0.691-0.051,1.381-0.102,2.072-0.151C84.325,91.695,84.343,91.767,84.359,91.84z"/>
	<path fill-rule="evenodd" clip-rule="evenodd" d="M100.357,172.278c0.073-0.545,0.112-0.833,0.15-1.12
		c0.027,0.001,0.055,0.003,0.082,0.005c0,0.484,0,0.97,0,1.456c-0.078,0.027-0.157,0.055-0.235,0.084
		c-0.217-0.355-0.434-0.711-0.65-1.065c0.044-0.039,0.089-0.077,0.132-0.114C99.961,171.704,100.086,171.885,100.357,172.278z"/>
	<path fill-rule="evenodd" clip-rule="evenodd" d="M101.493,170.841c0.127-0.303,0.203-0.484,0.279-0.665
		c0.049,0.018,0.099,0.035,0.148,0.053c-0.07,0.31-0.141,0.618-0.265,1.169c-0.379-0.501-0.621-0.819-0.863-1.141
		c0.041-0.036,0.081-0.073,0.121-0.11C101.069,170.333,101.226,170.52,101.493,170.841z"/>
	<path fill-rule="evenodd" clip-rule="evenodd" d="M93.135,86.35c0.524-0.082,1.049-0.163,1.573-0.245
		c0.018,0.098,0.035,0.196,0.052,0.295c-0.529,0.092-1.058,0.185-1.587,0.276C93.16,86.567,93.147,86.459,93.135,86.35z"/>
	<path fill-rule="evenodd" clip-rule="evenodd" d="M103.5,169.736c-0.034,0.268-0.068,0.535-0.133,1.026
		c-0.461-0.404-0.775-0.682-1.24-1.09c0.555-0.069,0.913,0.916,1.225-0.118C103.4,169.615,103.45,169.676,103.5,169.736z"/>
	<path fill-rule="evenodd" clip-rule="evenodd" fill="#FFFFFF" d="M95.799,60.667c0.189,0.299,0.473,0.576,0.547,0.901
		c0.138,0.59-0.504,1.422-1.099,1.553c-0.199,0.043-0.397,0.091-0.598,0.123c-1.757,0.28-2.356-0.263-2.31-2.194
		c0.539-0.147,1.103-0.3,1.667-0.454c0.038,0.072,0.077,0.144,0.115,0.215c-0.336,0.339-1.024,0.584-0.522,1.183
		c0.175,0.208,0.581,0.356,0.854,0.322c0.856-0.106,1.198-0.69,1.095-1.573C95.633,60.717,95.715,60.692,95.799,60.667z"/>
	<path fill-rule="evenodd" clip-rule="evenodd" fill="#FFFFFF" d="M69.002,133.326c0.016,0.041,0.024,0.083,0.035,0.124
		c0.005,0.006,0.007,0.014,0.012,0.019c0.038,0.014,0.064,0.042,0.076,0.078c0.004,0.001,0.007,0.003,0.011,0.004
		c-0.165-0.516-0.364-0.994-0.592-1.44c0.061,0.193,0.097,0.395,0.105,0.598c0.055,0.117,0.112,0.234,0.174,0.348
		c0.021,0.038,0.032,0.075,0.036,0.11C68.922,133.2,68.975,133.254,69.002,133.326z"/>
	<path fill-rule="evenodd" clip-rule="evenodd" fill="#FFFFFF" d="M72.142,63.014c-0.153-0.054-0.245-0.064-0.306-0.113
		c-0.211-0.166-0.412-0.344-0.617-0.519c0.165-0.161,0.364-0.479,0.489-0.451c0.322,0.069,0.796,0.226,0.881,0.464
		c0.357,1.007-0.305,2.159-1.348,2.525c-1.017,0.357-1.797,0.152-2.382-0.74c-0.176-0.268-0.171-0.696-0.138-1.04
		c0.014-0.156,0.283-0.353,0.47-0.4c0.101-0.026,0.313,0.198,0.405,0.352C70.249,64.181,71.414,64.181,72.142,63.014z"/>
	<path fill-rule="evenodd" clip-rule="evenodd" fill="#FFFFFF" d="M66.008,62.958c0.387-0.063,0.775-0.126,1.172-0.191
		c0.254,0.638,0.494,1.241,0.733,1.844c-0.048,0.059-0.095,0.117-0.142,0.176c-0.615-0.531-1.231-1.062-1.847-1.592
		C65.953,63.115,65.98,63.036,66.008,62.958z"/>
	<path fill-rule="evenodd" clip-rule="evenodd" fill="#FFFFFF" d="M65.463,63.203c0.834,0.68,1.668,1.361,2.502,2.041
		c-0.059,0.075-0.118,0.149-0.178,0.224c-0.842-0.67-1.685-1.34-2.527-2.011C65.329,63.373,65.396,63.288,65.463,63.203z"/>
	<path fill-rule="evenodd" clip-rule="evenodd" fill="#FFFFFF" d="M70.992,60.535c-0.615,0.056-1.23,0.112-1.845,0.168
		c-0.01-0.113-0.02-0.226-0.029-0.338c0.61-0.05,1.222-0.1,1.832-0.149C70.964,60.322,70.978,60.428,70.992,60.535z"/>
</g>
</svg>
